<svg height="5870" width="720" xmlns="http://www.w3.org/2000/svg">
<rect height="5870" fill="#555" width="720"></rect>
<text fill="#7f7" font-family="Courier New" font-size="12" xml:space="preserve">
<tspan x="10" y="26">85 megabytes installed</tspan>
<tspan x="10" y="42"></tspan>
<tspan x="10" y="58">node_modules</tspan>
<tspan x="10" y="74">└─┬ parse-server@2.3.8 </tspan>
<tspan x="10" y="90">  ├─┬ bcrypt@1.0.2 </tspan>
<tspan x="10" y="106">  │ ├── bindings@1.2.1 </tspan>
<tspan x="10" y="122">  │ ├── nan@2.5.0 </tspan>
<tspan x="10" y="138">  │ └─┬ node-pre-gyp@0.6.32 </tspan>
<tspan x="10" y="154">  │   ├─┬ nopt@3.0.6 </tspan>
<tspan x="10" y="170">  │   │ └── abbrev@1.1.0 </tspan>
<tspan x="10" y="186">  │   ├─┬ npmlog@4.0.2 </tspan>
<tspan x="10" y="202">  │   │ ├── console-control-strings@1.1.0 </tspan>
<tspan x="10" y="218">  │   │ ├─┬ gauge@2.7.4 </tspan>
<tspan x="10" y="234">  │   │ │ ├── aproba@1.1.1 </tspan>
<tspan x="10" y="250">  │   │ │ ├── object-assign@4.1.1 </tspan>
<tspan x="10" y="266">  │   │ │ ├── signal-exit@3.0.2 </tspan>
<tspan x="10" y="282">  │   │ │ ├─┬ string-width@1.0.2 </tspan>
<tspan x="10" y="298">  │   │ │ │ ├── code-point-at@1.1.0 </tspan>
<tspan x="10" y="314">  │   │ │ │ └─┬ is-fullwidth-code-point@1.0.0 </tspan>
<tspan x="10" y="330">  │   │ │ │   └── number-is-nan@1.0.1 </tspan>
<tspan x="10" y="346">  │   │ │ ├─┬ strip-ansi@3.0.1 </tspan>
<tspan x="10" y="362">  │   │ │ │ └── ansi-regex@2.1.1 </tspan>
<tspan x="10" y="378">  │   │ │ └── wide-align@1.1.0 </tspan>
<tspan x="10" y="394">  │   │ └── set-blocking@2.0.0 </tspan>
<tspan x="10" y="410">  │   ├─┬ rc@1.1.7 </tspan>
<tspan x="10" y="426">  │   │ ├── deep-extend@0.4.1 </tspan>
<tspan x="10" y="442">  │   │ ├── ini@1.3.4 </tspan>
<tspan x="10" y="458">  │   │ ├── minimist@1.2.0 </tspan>
<tspan x="10" y="474">  │   │ └── strip-json-comments@2.0.1 </tspan>
<tspan x="10" y="490">  │   ├─┬ rimraf@2.5.4 </tspan>
<tspan x="10" y="506">  │   │ └─┬ glob@7.1.1 </tspan>
<tspan x="10" y="522">  │   │   ├── fs.realpath@1.0.0 </tspan>
<tspan x="10" y="538">  │   │   ├── inflight@1.0.6 </tspan>
<tspan x="10" y="554">  │   │   ├─┬ minimatch@3.0.3 </tspan>
<tspan x="10" y="570">  │   │   │ └─┬ brace-expansion@1.1.7 </tspan>
<tspan x="10" y="586">  │   │   │   ├── balanced-match@0.4.2 </tspan>
<tspan x="10" y="602">  │   │   │   └── concat-map@0.0.1 </tspan>
<tspan x="10" y="618">  │   │   ├── once@1.4.0 </tspan>
<tspan x="10" y="634">  │   │   └── path-is-absolute@1.0.1 </tspan>
<tspan x="10" y="650">  │   ├── semver@5.3.0 </tspan>
<tspan x="10" y="666">  │   ├─┬ tar@2.2.1 </tspan>
<tspan x="10" y="682">  │   │ ├── block-stream@0.0.9 </tspan>
<tspan x="10" y="698">  │   │ └─┬ fstream@1.0.11 </tspan>
<tspan x="10" y="714">  │   │   └── graceful-fs@4.1.11 </tspan>
<tspan x="10" y="730">  │   └─┬ tar-pack@3.3.0 </tspan>
<tspan x="10" y="746">  │     ├── fstream-ignore@1.0.5 </tspan>
<tspan x="10" y="762">  │     ├─┬ once@1.3.3 </tspan>
<tspan x="10" y="778">  │     │ └── wrappy@1.0.2 </tspan>
<tspan x="10" y="794">  │     ├─┬ readable-stream@2.1.5 </tspan>
<tspan x="10" y="810">  │     │ └── string_decoder@0.10.31 </tspan>
<tspan x="10" y="826">  │     └── uid-number@0.0.6 </tspan>
<tspan x="10" y="842">  ├── bcryptjs@2.4.3 </tspan>
<tspan x="10" y="858">  ├─┬ body-parser@1.17.1 </tspan>
<tspan x="10" y="874">  │ ├── bytes@2.4.0 </tspan>
<tspan x="10" y="890">  │ ├── content-type@1.0.2 </tspan>
<tspan x="10" y="906">  │ ├─┬ debug@2.6.1 </tspan>
<tspan x="10" y="922">  │ │ └── ms@0.7.2 </tspan>
<tspan x="10" y="938">  │ ├── depd@1.1.0 </tspan>
<tspan x="10" y="954">  │ ├─┬ http-errors@1.6.1 </tspan>
<tspan x="10" y="970">  │ │ └── inherits@2.0.3 </tspan>
<tspan x="10" y="986">  │ ├── iconv-lite@0.4.15 </tspan>
<tspan x="10" y="1002">  │ ├─┬ on-finished@2.3.0 </tspan>
<tspan x="10" y="1018">  │ │ └── ee-first@1.1.1 </tspan>
<tspan x="10" y="1034">  │ ├── qs@6.4.0 </tspan>
<tspan x="10" y="1050">  │ ├─┬ raw-body@2.2.0 </tspan>
<tspan x="10" y="1066">  │ │ └── unpipe@1.0.0 </tspan>
<tspan x="10" y="1082">  │ └─┬ type-is@1.6.15 </tspan>
<tspan x="10" y="1098">  │   └── media-typer@0.3.0 </tspan>
<tspan x="10" y="1114">  ├─┬ commander@2.9.0 </tspan>
<tspan x="10" y="1130">  │ └── graceful-readlink@1.0.1 </tspan>
<tspan x="10" y="1146">  ├── deepcopy@0.6.3 </tspan>
<tspan x="10" y="1162">  ├─┬ express@4.15.2 </tspan>
<tspan x="10" y="1178">  │ ├─┬ accepts@1.3.3 </tspan>
<tspan x="10" y="1194">  │ │ └── negotiator@0.6.1 </tspan>
<tspan x="10" y="1210">  │ ├── array-flatten@1.1.1 </tspan>
<tspan x="10" y="1226">  │ ├── content-disposition@0.5.2 </tspan>
<tspan x="10" y="1242">  │ ├── cookie@0.3.1 </tspan>
<tspan x="10" y="1258">  │ ├── cookie-signature@1.0.6 </tspan>
<tspan x="10" y="1274">  │ ├─┬ debug@2.6.1 </tspan>
<tspan x="10" y="1290">  │ │ └── ms@0.7.2 </tspan>
<tspan x="10" y="1306">  │ ├── encodeurl@1.0.1 </tspan>
<tspan x="10" y="1322">  │ ├── escape-html@1.0.3 </tspan>
<tspan x="10" y="1338">  │ ├── etag@1.8.0 </tspan>
<tspan x="10" y="1354">  │ ├─┬ finalhandler@1.0.1 </tspan>
<tspan x="10" y="1370">  │ │ └─┬ debug@2.6.3 </tspan>
<tspan x="10" y="1386">  │ │   └── ms@0.7.2 </tspan>
<tspan x="10" y="1402">  │ ├── fresh@0.5.0 </tspan>
<tspan x="10" y="1418">  │ ├── merge-descriptors@1.0.1 </tspan>
<tspan x="10" y="1434">  │ ├── methods@1.1.2 </tspan>
<tspan x="10" y="1450">  │ ├── parseurl@1.3.1 </tspan>
<tspan x="10" y="1466">  │ ├── path-to-regexp@0.1.7 </tspan>
<tspan x="10" y="1482">  │ ├─┬ proxy-addr@1.1.4 </tspan>
<tspan x="10" y="1498">  │ │ ├── forwarded@0.1.0 </tspan>
<tspan x="10" y="1514">  │ │ └── ipaddr.js@1.3.0 </tspan>
<tspan x="10" y="1530">  │ ├── range-parser@1.2.0 </tspan>
<tspan x="10" y="1546">  │ ├─┬ send@0.15.1 </tspan>
<tspan x="10" y="1562">  │ │ ├── debug@2.6.1 </tspan>
<tspan x="10" y="1578">  │ │ ├── destroy@1.0.4 </tspan>
<tspan x="10" y="1594">  │ │ └── ms@0.7.2 </tspan>
<tspan x="10" y="1610">  │ ├── serve-static@1.12.1 </tspan>
<tspan x="10" y="1626">  │ ├── setprototypeof@1.0.3 </tspan>
<tspan x="10" y="1642">  │ ├── statuses@1.3.1 </tspan>
<tspan x="10" y="1658">  │ ├── utils-merge@1.0.0 </tspan>
<tspan x="10" y="1674">  │ └── vary@1.1.1 </tspan>
<tspan x="10" y="1690">  ├── intersect@1.0.1 </tspan>
<tspan x="10" y="1706">  ├── lodash@4.17.4 </tspan>
<tspan x="10" y="1722">  ├─┬ lru-cache@4.0.2 </tspan>
<tspan x="10" y="1738">  │ ├── pseudomap@1.0.2 </tspan>
<tspan x="10" y="1754">  │ └── yallist@2.1.2 </tspan>
<tspan x="10" y="1770">  ├── mime@1.3.4 </tspan>
<tspan x="10" y="1786">  ├─┬ mongodb@2.2.25 </tspan>
<tspan x="10" y="1802">  │ ├── es6-promise@3.2.1 </tspan>
<tspan x="10" y="1818">  │ ├─┬ mongodb-core@2.1.9 </tspan>
<tspan x="10" y="1834">  │ │ ├── bson@1.0.4 </tspan>
<tspan x="10" y="1850">  │ │ └─┬ require_optional@1.0.0 </tspan>
<tspan x="10" y="1866">  │ │   └── resolve-from@2.0.0 </tspan>
<tspan x="10" y="1882">  │ └─┬ readable-stream@2.1.5 </tspan>
<tspan x="10" y="1898">  │   ├── buffer-shims@1.0.0 </tspan>
<tspan x="10" y="1914">  │   ├── core-util-is@1.0.2 </tspan>
<tspan x="10" y="1930">  │   ├── isarray@1.0.0 </tspan>
<tspan x="10" y="1946">  │   ├── process-nextick-args@1.0.7 </tspan>
<tspan x="10" y="1962">  │   ├── string_decoder@0.10.31 </tspan>
<tspan x="10" y="1978">  │   └── util-deprecate@1.0.2 </tspan>
<tspan x="10" y="1994">  ├─┬ multer@1.3.0 </tspan>
<tspan x="10" y="2010">  │ ├── append-field@0.1.0 </tspan>
<tspan x="10" y="2026">  │ ├─┬ busboy@0.2.14 </tspan>
<tspan x="10" y="2042">  │ │ ├─┬ dicer@0.2.5 </tspan>
<tspan x="10" y="2058">  │ │ │ ├─┬ readable-stream@1.1.14 </tspan>
<tspan x="10" y="2074">  │ │ │ │ ├── isarray@0.0.1 </tspan>
<tspan x="10" y="2090">  │ │ │ │ └── string_decoder@0.10.31 </tspan>
<tspan x="10" y="2106">  │ │ │ └── streamsearch@0.1.2 </tspan>
<tspan x="10" y="2122">  │ │ └─┬ readable-stream@1.1.14 </tspan>
<tspan x="10" y="2138">  │ │   ├── isarray@0.0.1 </tspan>
<tspan x="10" y="2154">  │ │   └── string_decoder@0.10.31 </tspan>
<tspan x="10" y="2170">  │ ├─┬ concat-stream@1.6.0 </tspan>
<tspan x="10" y="2186">  │ │ ├─┬ readable-stream@2.2.9 </tspan>
<tspan x="10" y="2202">  │ │ │ └── string_decoder@1.0.0 </tspan>
<tspan x="10" y="2218">  │ │ └── typedarray@0.0.6 </tspan>
<tspan x="10" y="2234">  │ ├─┬ mkdirp@0.5.1 </tspan>
<tspan x="10" y="2250">  │ │ └── minimist@0.0.8 </tspan>
<tspan x="10" y="2266">  │ ├── object-assign@3.0.0 </tspan>
<tspan x="10" y="2282">  │ └── xtend@4.0.1 </tspan>
<tspan x="10" y="2298">  ├─┬ parse@1.9.2 </tspan>
<tspan x="10" y="2314">  │ ├─┬ babel-runtime@6.23.0 </tspan>
<tspan x="10" y="2330">  │ │ ├── core-js@2.4.1 </tspan>
<tspan x="10" y="2346">  │ │ └── regenerator-runtime@0.10.3 </tspan>
<tspan x="10" y="2362">  │ ├─┬ ws@1.1.4 </tspan>
<tspan x="10" y="2378">  │ │ ├── options@0.0.6 </tspan>
<tspan x="10" y="2394">  │ │ └── ultron@1.0.2 </tspan>
<tspan x="10" y="2410">  │ └── xmlhttprequest@1.8.0 </tspan>
<tspan x="10" y="2426">  ├── parse-server-fs-adapter@1.0.1 </tspan>
<tspan x="10" y="2442">  ├─┬ parse-server-push-adapter@1.3.0 </tspan>
<tspan x="10" y="2458">  │ ├─┬ apn@1.7.8 </tspan>
<tspan x="10" y="2474">  │ │ ├─┬ debug@2.2.0 </tspan>
<tspan x="10" y="2490">  │ │ │ └── ms@0.7.1 </tspan>
<tspan x="10" y="2506">  │ │ ├── node-forge@0.6.49 </tspan>
<tspan x="10" y="2522">  │ │ └── q@1.5.0 </tspan>
<tspan x="10" y="2538">  │ ├─┬ node-gcm@0.14.6 </tspan>
<tspan x="10" y="2554">  │ │ ├── debug@0.8.1 </tspan>
<tspan x="10" y="2570">  │ │ └── lodash@3.10.1 </tspan>
<tspan x="10" y="2586">  │ └─┬ npmlog@2.0.4 </tspan>
<tspan x="10" y="2602">  │   ├── ansi@0.3.1 </tspan>
<tspan x="10" y="2618">  │   ├─┬ are-we-there-yet@1.1.4 </tspan>
<tspan x="10" y="2634">  │   │ └── delegates@1.0.0 </tspan>
<tspan x="10" y="2650">  │   └─┬ gauge@1.2.7 </tspan>
<tspan x="10" y="2666">  │     ├── has-unicode@2.0.1 </tspan>
<tspan x="10" y="2682">  │     ├── lodash.pad@4.5.1 </tspan>
<tspan x="10" y="2698">  │     ├── lodash.padend@4.6.1 </tspan>
<tspan x="10" y="2714">  │     └── lodash.padstart@4.6.1 </tspan>
<tspan x="10" y="2730">  ├─┬ parse-server-s3-adapter@1.0.6 </tspan>
<tspan x="10" y="2746">  │ └─┬ aws-sdk@2.45.0 </tspan>
<tspan x="10" y="2762">  │   ├─┬ buffer@4.9.1 </tspan>
<tspan x="10" y="2778">  │   │ ├── base64-js@1.2.0 </tspan>
<tspan x="10" y="2794">  │   │ └── ieee754@1.1.8 </tspan>
<tspan x="10" y="2810">  │   ├── crypto-browserify@1.0.9 </tspan>
<tspan x="10" y="2826">  │   ├── jmespath@0.15.0 </tspan>
<tspan x="10" y="2842">  │   ├── querystring@0.2.0 </tspan>
<tspan x="10" y="2858">  │   ├── sax@1.2.1 </tspan>
<tspan x="10" y="2874">  │   ├─┬ url@0.10.3 </tspan>
<tspan x="10" y="2890">  │   │ └── punycode@1.3.2 </tspan>
<tspan x="10" y="2906">  │   ├── xml2js@0.4.17 </tspan>
<tspan x="10" y="2922">  │   └── xmlbuilder@4.2.1 </tspan>
<tspan x="10" y="2938">  ├─┬ parse-server-simple-mailgun-adapter@1.0.0 </tspan>
<tspan x="10" y="2954">  │ └─┬ mailgun-js@0.7.15 </tspan>
<tspan x="10" y="2970">  │   ├── async@2.1.5 </tspan>
<tspan x="10" y="2986">  │   ├── inflection@1.10.0 </tspan>
<tspan x="10" y="3002">  │   ├── is-stream@1.1.0 </tspan>
<tspan x="10" y="3018">  │   ├─┬ path-proxy@1.0.0 </tspan>
<tspan x="10" y="3034">  │   │ └── inflection@1.3.8 </tspan>
<tspan x="10" y="3050">  │   ├─┬ proxy-agent@2.0.0 </tspan>
<tspan x="10" y="3066">  │   │ ├─┬ agent-base@2.0.1 </tspan>
<tspan x="10" y="3082">  │   │ │ └── semver@5.0.3 </tspan>
<tspan x="10" y="3098">  │   │ ├── http-proxy-agent@1.0.0 </tspan>
<tspan x="10" y="3114">  │   │ ├── https-proxy-agent@1.0.0 </tspan>
<tspan x="10" y="3130">  │   │ ├── lru-cache@2.6.5 </tspan>
<tspan x="10" y="3146">  │   │ ├─┬ pac-proxy-agent@1.0.0 </tspan>
<tspan x="10" y="3162">  │   │ │ ├─┬ get-uri@1.1.0 </tspan>
<tspan x="10" y="3178">  │   │ │ │ ├── data-uri-to-buffer@0.0.4 </tspan>
<tspan x="10" y="3194">  │   │ │ │ ├── file-uri-to-path@0.0.2 </tspan>
<tspan x="10" y="3210">  │   │ │ │ └─┬ ftp@0.3.10 </tspan>
<tspan x="10" y="3226">  │   │ │ │   ├─┬ readable-stream@1.1.14 </tspan>
<tspan x="10" y="3242">  │   │ │ │   │ ├── isarray@0.0.1 </tspan>
<tspan x="10" y="3258">  │   │ │ │   │ └── string_decoder@0.10.31 </tspan>
<tspan x="10" y="3274">  │   │ │ │   └── xregexp@2.0.0 </tspan>
<tspan x="10" y="3290">  │   │ │ ├─┬ pac-resolver@1.2.6 </tspan>
<tspan x="10" y="3306">  │   │ │ │ ├── co@3.0.6 </tspan>
<tspan x="10" y="3322">  │   │ │ │ ├─┬ degenerator@1.0.4 </tspan>
<tspan x="10" y="3338">  │   │ │ │ │ ├── ast-types@0.9.11 </tspan>
<tspan x="10" y="3354">  │   │ │ │ │ ├─┬ escodegen@1.8.1 </tspan>
<tspan x="10" y="3370">  │   │ │ │ │ │ ├── esprima@2.7.3 </tspan>
<tspan x="10" y="3386">  │   │ │ │ │ │ ├── estraverse@1.9.3 </tspan>
<tspan x="10" y="3402">  │   │ │ │ │ │ ├── esutils@2.0.2 </tspan>
<tspan x="10" y="3418">  │   │ │ │ │ │ ├─┬ optionator@0.8.2 </tspan>
<tspan x="10" y="3434">  │   │ │ │ │ │ │ ├── deep-is@0.1.3 </tspan>
<tspan x="10" y="3450">  │   │ │ │ │ │ │ ├── fast-levenshtein@2.0.6 </tspan>
<tspan x="10" y="3466">  │   │ │ │ │ │ │ ├── levn@0.3.0 </tspan>
<tspan x="10" y="3482">  │   │ │ │ │ │ │ ├── prelude-ls@1.1.2 </tspan>
<tspan x="10" y="3498">  │   │ │ │ │ │ │ ├── type-check@0.3.2 </tspan>
<tspan x="10" y="3514">  │   │ │ │ │ │ │ └── wordwrap@1.0.0 </tspan>
<tspan x="10" y="3530">  │   │ │ │ │ │ └─┬ source-map@0.2.0 </tspan>
<tspan x="10" y="3546">  │   │ │ │ │ │   └── amdefine@1.0.1 </tspan>
<tspan x="10" y="3562">  │   │ │ │ │ └── esprima@3.1.3 </tspan>
<tspan x="10" y="3578">  │   │ │ │ ├── netmask@1.0.6 </tspan>
<tspan x="10" y="3594">  │   │ │ │ ├─┬ regenerator@0.8.46 </tspan>
<tspan x="10" y="3610">  │   │ │ │ │ ├─┬ commoner@0.10.8 </tspan>
<tspan x="10" y="3626">  │   │ │ │ │ │ ├─┬ detective@4.5.0 </tspan>
<tspan x="10" y="3642">  │   │ │ │ │ │ │ ├── acorn@4.0.11 </tspan>
<tspan x="10" y="3658">  │   │ │ │ │ │ │ └── defined@1.0.0 </tspan>
<tspan x="10" y="3674">  │   │ │ │ │ │ ├── glob@5.0.15 </tspan>
<tspan x="10" y="3690">  │   │ │ │ │ │ └─┬ recast@0.11.23 </tspan>
<tspan x="10" y="3706">  │   │ │ │ │ │   ├── ast-types@0.9.6 </tspan>
<tspan x="10" y="3722">  │   │ │ │ │ │   └── source-map@0.5.6 </tspan>
<tspan x="10" y="3738">  │   │ │ │ │ ├─┬ defs@1.1.1 </tspan>
<tspan x="10" y="3754">  │   │ │ │ │ │ ├─┬ alter@0.2.0 </tspan>
<tspan x="10" y="3770">  │   │ │ │ │ │ │ └── stable@0.1.6 </tspan>
<tspan x="10" y="3786">  │   │ │ │ │ │ ├── ast-traverse@0.1.1 </tspan>
<tspan x="10" y="3802">  │   │ │ │ │ │ ├── breakable@1.0.0 </tspan>
<tspan x="10" y="3818">  │   │ │ │ │ │ ├── esprima-fb@15001.1001.0-dev-harmony-fb </tspan>
<tspan x="10" y="3834">  │   │ │ │ │ │ ├── simple-fmt@0.1.0 </tspan>
<tspan x="10" y="3850">  │   │ │ │ │ │ ├── simple-is@0.2.0 </tspan>
<tspan x="10" y="3866">  │   │ │ │ │ │ ├── stringmap@0.2.2 </tspan>
<tspan x="10" y="3882">  │   │ │ │ │ │ ├── stringset@0.2.1 </tspan>
<tspan x="10" y="3898">  │   │ │ │ │ │ ├── tryor@0.1.2 </tspan>
<tspan x="10" y="3914">  │   │ │ │ │ │ └─┬ yargs@3.27.0 </tspan>
<tspan x="10" y="3930">  │   │ │ │ │ │   ├── camelcase@1.2.1 </tspan>
<tspan x="10" y="3946">  │   │ │ │ │ │   ├─┬ cliui@2.1.0 </tspan>
<tspan x="10" y="3962">  │   │ │ │ │ │   │ ├─┬ center-align@0.1.3 </tspan>
<tspan x="10" y="3978">  │   │ │ │ │ │   │ │ ├─┬ align-text@0.1.4 </tspan>
<tspan x="10" y="3994">  │   │ │ │ │ │   │ │ │ ├─┬ kind-of@3.1.0 </tspan>
<tspan x="10" y="4010">  │   │ │ │ │ │   │ │ │ │ └── is-buffer@1.1.5 </tspan>
<tspan x="10" y="4026">  │   │ │ │ │ │   │ │ │ ├── longest@1.0.1 </tspan>
<tspan x="10" y="4042">  │   │ │ │ │ │   │ │ │ └── repeat-string@1.6.1 </tspan>
<tspan x="10" y="4058">  │   │ │ │ │ │   │ │ └── lazy-cache@1.0.4 </tspan>
<tspan x="10" y="4074">  │   │ │ │ │ │   │ ├── right-align@0.1.3 </tspan>
<tspan x="10" y="4090">  │   │ │ │ │ │   │ └── wordwrap@0.0.2 </tspan>
<tspan x="10" y="4106">  │   │ │ │ │ │   ├── decamelize@1.2.0 </tspan>
<tspan x="10" y="4122">  │   │ │ │ │ │   ├─┬ os-locale@1.4.0 </tspan>
<tspan x="10" y="4138">  │   │ │ │ │ │   │ └─┬ lcid@1.0.0 </tspan>
<tspan x="10" y="4154">  │   │ │ │ │ │   │   └── invert-kv@1.0.0 </tspan>
<tspan x="10" y="4170">  │   │ │ │ │ │   ├── window-size@0.1.4 </tspan>
<tspan x="10" y="4186">  │   │ │ │ │ │   └── y18n@3.2.1 </tspan>
<tspan x="10" y="4202">  │   │ │ │ │ ├── esprima-fb@15001.1001.0-dev-harmony-fb </tspan>
<tspan x="10" y="4218">  │   │ │ │ │ ├── private@0.1.7 </tspan>
<tspan x="10" y="4234">  │   │ │ │ │ ├─┬ recast@0.10.33 </tspan>
<tspan x="10" y="4250">  │   │ │ │ │ │ ├── ast-types@0.8.12 </tspan>
<tspan x="10" y="4266">  │   │ │ │ │ │ ├── esprima-fb@15001.1001.0-dev-harmony-fb </tspan>
<tspan x="10" y="4282">  │   │ │ │ │ │ └── source-map@0.5.6 </tspan>
<tspan x="10" y="4298">  │   │ │ │ │ └── regenerator-runtime@0.9.6 </tspan>
<tspan x="10" y="4314">  │   │ │ │ └── thunkify@2.1.2 </tspan>
<tspan x="10" y="4330">  │   │ │ └─┬ stream-to-buffer@0.1.0 </tspan>
<tspan x="10" y="4346">  │   │ │   └── stream-to@0.2.2 </tspan>
<tspan x="10" y="4362">  │   │ └─┬ socks-proxy-agent@2.0.0 </tspan>
<tspan x="10" y="4378">  │   │   └─┬ socks@1.1.10 </tspan>
<tspan x="10" y="4394">  │   │     ├── ip@1.1.5 </tspan>
<tspan x="10" y="4410">  │   │     └── smart-buffer@1.1.15 </tspan>
<tspan x="10" y="4426">  │   ├── q@1.4.1 </tspan>
<tspan x="10" y="4442">  │   └── tsscmp@1.0.5 </tspan>
<tspan x="10" y="4458">  ├─┬ pg-promise@5.6.4 </tspan>
<tspan x="10" y="4474">  │ ├── manakin@0.4.6 </tspan>
<tspan x="10" y="4490">  │ ├─┬ pg@5.1.0 </tspan>
<tspan x="10" y="4506">  │ │ ├── buffer-writer@1.0.1 </tspan>
<tspan x="10" y="4522">  │ │ ├── generic-pool@2.4.2 </tspan>
<tspan x="10" y="4538">  │ │ ├── packet-reader@0.2.0 </tspan>
<tspan x="10" y="4554">  │ │ ├── pg-connection-string@0.1.3 </tspan>
<tspan x="10" y="4570">  │ │ ├─┬ pg-types@1.11.0 </tspan>
<tspan x="10" y="4586">  │ │ │ ├── ap@0.2.0 </tspan>
<tspan x="10" y="4602">  │ │ │ ├── postgres-array@1.0.2 </tspan>
<tspan x="10" y="4618">  │ │ │ ├── postgres-bytea@1.0.0 </tspan>
<tspan x="10" y="4634">  │ │ │ ├── postgres-date@1.0.3 </tspan>
<tspan x="10" y="4650">  │ │ │ └── postgres-interval@1.0.2 </tspan>
<tspan x="10" y="4666">  │ │ ├─┬ pgpass@0.0.6 </tspan>
<tspan x="10" y="4682">  │ │ │ └─┬ split@1.0.0 </tspan>
<tspan x="10" y="4698">  │ │ │   └── through@2.3.8 </tspan>
<tspan x="10" y="4714">  │ │ └── semver@4.3.2 </tspan>
<tspan x="10" y="4730">  │ ├── pg-minify@0.4.2 </tspan>
<tspan x="10" y="4746">  │ └── spex@1.2.0 </tspan>
<tspan x="10" y="4762">  ├─┬ redis@2.7.1 </tspan>
<tspan x="10" y="4778">  │ ├── double-ended-queue@2.1.0-0 </tspan>
<tspan x="10" y="4794">  │ ├── redis-commands@1.3.1 </tspan>
<tspan x="10" y="4810">  │ └── redis-parser@2.6.0 </tspan>
<tspan x="10" y="4826">  ├─┬ request@2.81.0 </tspan>
<tspan x="10" y="4842">  │ ├── aws-sign2@0.6.0 </tspan>
<tspan x="10" y="4858">  │ ├── aws4@1.6.0 </tspan>
<tspan x="10" y="4874">  │ ├── caseless@0.12.0 </tspan>
<tspan x="10" y="4890">  │ ├─┬ combined-stream@1.0.5 </tspan>
<tspan x="10" y="4906">  │ │ └── delayed-stream@1.0.0 </tspan>
<tspan x="10" y="4922">  │ ├── extend@3.0.0 </tspan>
<tspan x="10" y="4938">  │ ├── forever-agent@0.6.1 </tspan>
<tspan x="10" y="4954">  │ ├─┬ form-data@2.1.4 </tspan>
<tspan x="10" y="4970">  │ │ └── asynckit@0.4.0 </tspan>
<tspan x="10" y="4986">  │ ├─┬ har-validator@4.2.1 </tspan>
<tspan x="10" y="5002">  │ │ ├─┬ ajv@4.11.7 </tspan>
<tspan x="10" y="5018">  │ │ │ ├── co@4.6.0 </tspan>
<tspan x="10" y="5034">  │ │ │ └─┬ json-stable-stringify@1.0.1 </tspan>
<tspan x="10" y="5050">  │ │ │   └── jsonify@0.0.0 </tspan>
<tspan x="10" y="5066">  │ │ └── har-schema@1.0.5 </tspan>
<tspan x="10" y="5082">  │ ├─┬ hawk@3.1.3 </tspan>
<tspan x="10" y="5098">  │ │ ├── boom@2.10.1 </tspan>
<tspan x="10" y="5114">  │ │ ├── cryptiles@2.0.5 </tspan>
<tspan x="10" y="5130">  │ │ ├── hoek@2.16.3 </tspan>
<tspan x="10" y="5146">  │ │ └── sntp@1.0.9 </tspan>
<tspan x="10" y="5162">  │ ├─┬ http-signature@1.1.1 </tspan>
<tspan x="10" y="5178">  │ │ ├── assert-plus@0.2.0 </tspan>
<tspan x="10" y="5194">  │ │ ├─┬ jsprim@1.4.0 </tspan>
<tspan x="10" y="5210">  │ │ │ ├── assert-plus@1.0.0 </tspan>
<tspan x="10" y="5226">  │ │ │ ├── extsprintf@1.0.2 </tspan>
<tspan x="10" y="5242">  │ │ │ ├── json-schema@0.2.3 </tspan>
<tspan x="10" y="5258">  │ │ │ └── verror@1.3.6 </tspan>
<tspan x="10" y="5274">  │ │ └─┬ sshpk@1.13.0 </tspan>
<tspan x="10" y="5290">  │ │   ├── asn1@0.2.3 </tspan>
<tspan x="10" y="5306">  │ │   ├── assert-plus@1.0.0 </tspan>
<tspan x="10" y="5322">  │ │   ├── bcrypt-pbkdf@1.0.1 </tspan>
<tspan x="10" y="5338">  │ │   ├─┬ dashdash@1.14.1 </tspan>
<tspan x="10" y="5354">  │ │   │ └── assert-plus@1.0.0 </tspan>
<tspan x="10" y="5370">  │ │   ├── ecc-jsbn@0.1.1 </tspan>
<tspan x="10" y="5386">  │ │   ├─┬ getpass@0.1.6 </tspan>
<tspan x="10" y="5402">  │ │   │ └── assert-plus@1.0.0 </tspan>
<tspan x="10" y="5418">  │ │   ├── jodid25519@1.0.2 </tspan>
<tspan x="10" y="5434">  │ │   ├── jsbn@0.1.1 </tspan>
<tspan x="10" y="5450">  │ │   └── tweetnacl@0.14.5 </tspan>
<tspan x="10" y="5466">  │ ├── is-typedarray@1.0.0 </tspan>
<tspan x="10" y="5482">  │ ├── isstream@0.1.2 </tspan>
<tspan x="10" y="5498">  │ ├── json-stringify-safe@5.0.1 </tspan>
<tspan x="10" y="5514">  │ ├─┬ mime-types@2.1.15 </tspan>
<tspan x="10" y="5530">  │ │ └── mime-db@1.27.0 </tspan>
<tspan x="10" y="5546">  │ ├── oauth-sign@0.8.2 </tspan>
<tspan x="10" y="5562">  │ ├── performance-now@0.2.0 </tspan>
<tspan x="10" y="5578">  │ ├── safe-buffer@5.0.1 </tspan>
<tspan x="10" y="5594">  │ ├── stringstream@0.0.5 </tspan>
<tspan x="10" y="5610">  │ ├─┬ tough-cookie@2.3.2 </tspan>
<tspan x="10" y="5626">  │ │ └── punycode@1.4.1 </tspan>
<tspan x="10" y="5642">  │ ├── tunnel-agent@0.6.0 </tspan>
<tspan x="10" y="5658">  │ └── uuid@3.0.1 </tspan>
<tspan x="10" y="5674">  ├── semver@5.2.0 </tspan>
<tspan x="10" y="5690">  ├── tv4@1.3.0 </tspan>
<tspan x="10" y="5706">  ├── uws@0.14.1 </tspan>
<tspan x="10" y="5722">  ├─┬ winston@2.3.1 </tspan>
<tspan x="10" y="5738">  │ ├── async@1.0.0 </tspan>
<tspan x="10" y="5754">  │ ├── colors@1.0.3 </tspan>
<tspan x="10" y="5770">  │ ├── cycle@1.0.3 </tspan>
<tspan x="10" y="5786">  │ ├── eyes@0.1.8 </tspan>
<tspan x="10" y="5802">  │ └── stack-trace@0.0.9 </tspan>
<tspan x="10" y="5818">  ├── winston-daily-rotate-file@1.4.6 </tspan>
<tspan x="10" y="5834">  └─┬ ws@2.2.3 </tspan>
<tspan x="10" y="5850">    └── ultron@1.1.0</tspan>
</text>
</svg>
